name Walk4.mot
datacolumns 19
datarows 27
range 2.40000000 2.53000000
endheader

                time	   L_ground_force_vx	   L_ground_force_vy	   L_ground_force_vz	   L_ground_force_px	   L_ground_force_py	   L_ground_force_pz	   R_ground_force_vx	   R_ground_force_vy	   R_ground_force_vz	   R_ground_force_px	   R_ground_force_py	   R_ground_force_pz	   L_ground_torque_x	   L_ground_torque_y	   L_ground_torque_z	   R_ground_torque_x	   R_ground_torque_y	   R_ground_torque_z	
          2.40000000	         -0.00000000	         -0.00000000	          0.00000000	          0.00000000	          0.00000000	          0.00000000	         -0.02188513	          1.64812004	          0.24717084	          0.06497645	          0.00000000	          0.01433987	          0.00000000	         -0.00000000	          0.00000000	          0.00000000	          0.02141429	          0.00000000	
          2.40500000	          0.00000000	         -0.00000000	          0.00000000	          0.00000000	          0.00000000	          0.00000000	         -0.05348689	         -1.02232715	         -0.07502569	         -0.00968742	          0.00000000	         -0.00211948	          0.00000000	         -0.00000000	          0.00000000	          0.00000000	         -0.00210256	          0.00000000	
          2.41000000	          0.00000000	          0.00000000	         -0.00000000	         -0.00000000	          0.00000000	         -0.00000000	         -0.01268654	         -0.46671875	         -0.04794764	         -0.00977865	          0.00000000	         -0.00215288	          0.00000000	          0.00000000	          0.00000000	          0.00000000	         -0.00291578	          0.00000000	
          2.41500000	          0.00000000	          0.00000000	         -0.00000000	         -0.00000000	          0.00000000	         -0.00000000	          0.00223161	         -0.02048766	         -0.00536032	         -0.00170236	          0.00000000	         -0.00037624	          0.00000000	          0.00000000	          0.00000000	          0.00000000	         -0.00059290	          0.00000000	
          2.42000000	         -0.00000000	         -0.00000000	          0.00000000	         -0.00000000	          0.00000000	         -0.00000000	          0.00200505	          0.04487582	          0.00369352	          0.00058174	          0.00000000	          0.00012767	          0.00000000	         -0.00000000	          0.00000000	          0.00000000	          0.00014944	          0.00000000	
          2.42500000	         -0.00000000	         -0.00000000	          0.00000000	          0.00000000	          0.00000000	          0.00000000	          0.00032244	          0.01485974	          0.00162172	          0.00034854	          0.00000000	          0.00007678	          0.00000000	         -0.00000000	          0.00000000	          0.00000000	          0.00010642	          0.00000000	
          2.43000000	         -0.00000000	         -0.00000000	          0.00000000	          0.00000000	          0.00000000	          0.00000000	         -0.00012678	         -0.00068525	          0.00005587	          0.00003502	          0.00000000	          0.00000777	          0.00000000	         -0.00000000	          0.00000000	          0.00000000	          0.00001375	          0.00000000	
          2.43500000	          0.00000000	          0.00000000	         -0.00000000	         -0.00000000	          0.00000000	         -0.00000000	         -0.00007069	         -0.00180543	         -0.00016025	         -0.00002796	          0.00000000	         -0.00000614	          0.00000000	          0.00000000	          0.00000000	          0.00000000	         -0.00000768	          0.00000000	
          2.44000000	          0.00000000	          0.00000000	         -0.00000000	         -0.00000000	          0.00000000	         -0.00000000	         -0.00000615	         -0.00043403	         -0.00005119	         -0.00001167	          0.00000000	         -0.00000257	          0.00000000	          0.00000000	          0.00000000	          0.00000000	         -0.00000365	          0.00000000	
          2.44500000	          0.00000000	          0.00000000	         -0.00000000	         -0.00000000	          0.00000000	         -0.00000000	          0.00000594	          0.00007369	          0.00000298	         -0.00000025	          0.00000000	         -0.00000006	          0.00000000	          0.00000000	          0.00000000	          0.00000000	         -0.00000020	          0.00000000	
          2.45000000	         -0.00000000	         -0.00000000	          0.00000000	          0.00000000	          0.00000000	          0.00000000	          0.00000234	          0.00006785	          0.00000639	          0.00000120	          0.00000000	          0.00000026	          0.00000000	         -0.00000000	          0.00000000	          0.00000000	          0.00000034	          0.00000000	
          2.45500000	         -0.00000000	         -0.00000000	          0.00000000	          0.00000000	          0.00000000	          0.00000000	          0.00000001	          0.00001111	          0.00000148	          0.00000036	          0.00000000	          0.00000008	          0.00000000	         -0.00000000	          0.00000000	          0.00000000	          0.00000012	          0.00000000	
          2.46000000	         -0.00000000	         -0.00000000	          0.00000000	          0.00000000	          0.00000000	          0.00000000	         -0.00000025	         -0.00000423	         -0.00000028	         -0.00000003	          0.00000000	         -0.00000001	          0.00000000	         -0.00000000	          0.00000000	          0.00000000	         -0.00000000	          0.00000000	
          2.46500000	          0.00000000	          0.00000000	         -0.00000000	         -0.00000000	          0.00000000	         -0.00000000	         -0.00000007	         -0.00000240	         -0.00000024	         -0.00000005	          0.00000000	         -0.00000001	          0.00000000	          0.00000000	          0.00000000	          0.00000000	         -0.00000001	          0.00000000	
          2.47000000	          0.00000000	          0.00000000	         -0.00000000	         -0.00000000	          0.00000000	         -0.00000000	          0.00000001	         -0.00000022	         -0.00000004	         -0.00000001	          0.00000000	         -0.00000000	          0.00000000	          0.00000000	          0.00000000	          0.00000000	         -0.00000000	          0.00000000	
          2.47500000	         -0.00000000	         -0.00000000	         -0.00000000	         -0.00000000	          0.00000000	         -0.00000000	          0.00000001	          0.00000020	          0.00000002	          0.00000000	          0.00000000	          0.00000000	          0.00000000	          0.00000000	          0.00000000	          0.00000000	          0.00000000	          0.00000000	
          2.48000000	         -0.00000000	         -0.00000000	          0.00000000	          0.00000000	          0.00000000	          0.00000000	          0.00000000	          0.00000008	          0.00000001	          0.00000000	          0.00000000	          0.00000000	          0.00000000	         -0.00000000	          0.00000000	          0.00000000	          0.00000000	          0.00000000	
          2.48500000	         -0.00000000	         -0.00000000	          0.00000000	          0.00000000	          0.00000000	          0.00000000	         -0.00000000	          0.00000000	          0.00000000	          0.00000000	          0.00000000	          0.00000000	          0.00000000	         -0.00000000	          0.00000000	          0.00000000	          0.00000000	          0.00000000	
          2.49000000	          0.00000000	          0.00000000	         -0.00000000	          0.00000000	          0.00000000	          0.00000000	         -0.00000000	         -0.00000001	         -0.00000000	         -0.00000000	          0.00000000	         -0.00000000	          0.00000000	          0.00000000	          0.00000000	          0.00000000	         -0.00000000	          0.00000000	
          2.49500000	          0.00000000	          0.00000000	         -0.00000000	         -0.00000000	          0.00000000	         -0.00000000	         -0.00000000	         -0.00000000	         -0.00000000	         -0.00000000	          0.00000000	         -0.00000000	          0.00000000	          0.00000000	          0.00000000	          0.00000000	         -0.00000000	          0.00000000	
          2.50000000	          0.00000000	          0.00000000	         -0.00000000	         -0.00000000	          0.00000000	         -0.00000000	          0.00000000	          0.00000000	          0.00000000	         -0.00000000	          0.00000000	         -0.00000000	          0.00000000	          0.00000000	          0.00000000	          0.00000000	         -0.00000000	          0.00000000	
          2.50500000	         -0.00000000	         -0.00000000	          0.00000000	          0.00000000	          0.00000000	          0.00000000	          0.00000000	          0.00000000	          0.00000000	          0.00000000	          0.00000000	          0.00000000	          0.00000000	         -0.00000000	          0.00000000	          0.00000000	          0.00000000	          0.00000000	
          2.51000000	         -0.00000000	         -0.00000000	          0.00000000	          0.00000000	          0.00000000	          0.00000000	          0.00000000	          0.00000000	          0.00000000	          0.00000000	          0.00000000	          0.00000000	          0.00000000	         -0.00000000	          0.00000000	          0.00000000	          0.00000000	          0.00000000	
          2.51500000	         -0.00000000	         -0.00000000	          0.00000000	          0.00000000	          0.00000000	          0.00000000	         -0.00000000	         -0.00000000	         -0.00000000	         -0.00000000	          0.00000000	         -0.00000000	          0.00000000	         -0.00000000	          0.00000000	          0.00000000	          0.00000000	          0.00000000	
          2.52000000	          0.00000000	          0.00000000	         -0.00000000	         -0.00000000	          0.00000000	         -0.00000000	         -0.00000000	         -0.00000000	         -0.00000000	         -0.00000000	          0.00000000	         -0.00000000	          0.00000000	          0.00000000	          0.00000000	          0.00000000	         -0.00000000	          0.00000000	
          2.52500000	          0.00000000	          0.00000000	         -0.00000000	         -0.00000000	          0.00000000	         -0.00000000	          0.00000000	         -0.00000000	         -0.00000000	         -0.00000000	          0.00000000	         -0.00000000	          0.00000000	          0.00000000	          0.00000000	          0.00000000	         -0.00000000	          0.00000000	
          2.53000000	         -0.00000000	          0.00000000	         -0.00000000	         -0.00000000	          0.00000000	         -0.00000000	          0.00000000	          0.00000000	          0.00000000	          0.00000000	          0.00000000	          0.00000000	          0.00000000	          0.00000000	          0.00000000	          0.00000000	          0.00000000	          0.00000000	
